:SAMPLES-PER-SECOND 30
:FULLY-SPECIFIED
:DEGREES
167
root  34.78135537 36.57031923 -14.12946596 9.983699799 -3.900952339 4.167906284
lowerback  -7.891539574 0.05476265028 -1.361180305
upperback  -4.049040318 0.763413012 -4.73277998
thorax  0.2916449904 0.5907199979 -4.07047987
lowerneck  -6.928410053 -14.84630013 -9.648730278
upperneck  14.02719975 -20.83820152 13.49170017
head  7.922749519 -9.317194939 3.698590279
lclavicle  0 -4.497500157e-015 -2.743230041e-014
lhumerus  -47.55329895 30.7173996 60.79790115
lradius  0.01604045555 -6.507048965e-006 29.0069828
lwrist  3.192251654e-007 -3.790274832e-007 -30.1739006
lhand  -4.453057379e-031 -37.53639984 -10.69250011
lfingers  90 7.125020027 -90
lthumb  95.1184135 -25.50472178 101.751232
rclavicle  0 -4.497500157e-015 -2.743230041e-014
rhumerus  19.68959808 -36.8852005 -39.64989853
rradius  -5.16745672e-007 2.214343908e-008 39.1617012
rwrist  0.0003490542294 -0.002273720223 -158.9859924
rhand  -1.771931598e-031 4.859399796 -7.138730049
rfingers  -90 -7.125020027 -90
rthumb  -84.76250617 -8.901142512 -59.35616307
rfemur  -11.30209541 14.88964272 12.1502037
rtibia  -0.5614863038 -1.606890559 18.33917236
rfoot  1.472581983 -21.84773636 -35.24772263
rtoes  3.908041254 19.62981629 -101.4944375
lfemur  -1.982900381 -17.02847481 -23.95620728
ltibia  8.528105736 -0.9886217117 3.916471481
lfoot  0.1972479671 -18.82722664 36.25539017
ltoes  -8.645613731 -18.10418195 -116.0728417
168
root  34.78379437 36.56977256 -14.13431693 9.977399826 -3.915930033 4.166352749
lowerback  -7.886230469 0.07656041533 -1.319780111
upperback  -4.045834541 0.791613996 -4.761750221
thorax  0.284660995 0.6048889756 -4.12210989
lowerneck  -6.895679951 -14.84661484 -9.608750343
upperneck  14.00580025 -20.83680725 13.4776001
head  7.905445576 -9.317012787 3.689873219
lclavicle  0 -4.497500157e-015 -2.743230041e-014
lhumerus  -47.54642487 30.70800018 60.75550079
lradius  0.01705805585 -6.507048965e-006 29.00533295
lwrist  3.192251654e-007 -3.790274832e-007 -30.18950081
lhand  -0 -37.52949905 -10.65600014
lfingers  90 7.125020027 -90
lthumb  95.10691068 -25.46919198 101.7402579
rclavicle  0 -4.497500157e-015 -2.743230041e-014
rhumerus  19.59760094 -36.91259766 -39.60739899
rradius  -5.16745672e-007 2.214343908e-008 39.17630005
rwrist  0.0003490542294 -0.002273720223 -159.003006
rhand  -1.771857306e-031 4.831059933 -7.278490067
rfingers  -90 -7.125020027 -90
rthumb  -84.84130286 -8.779077436 -59.39494184
rfemur  -11.35000229 14.92298508 12.14854908
rtibia  -0.5776873827 -1.588256001 18.41868591
rfoot  1.439496398 -21.83483887 -35.2610054
rtoes  3.924337287 19.62668826 -101.5429498
lfemur  -1.97823441 -17.08115196 -23.9756813
ltibia  8.527320862 -1.025584102 3.932987452
lfoot  0.1729204804 -18.73993874 36.24849701
ltoes  -8.657085786 -18.09884205 -116.1097648
169
root  34.78513102 36.56906669 -14.13948179 9.965735435 -3.91128087 4.163949013
lowerback  -7.909399986 0.07595635951 -1.310249805
upperback  -4.042508602 0.791023016 -4.761370182
thorax  0.3052339852 0.6044070125 -4.126920223
lowerneck  -6.874660015 -14.8502512 -9.592450142
upperneck  13.96660042 -20.83994293 13.46860027
head  7.885104179 -9.316762924 3.688178301
lclavicle  0 -4.497500157e-015 -2.743230041e-014
lhumerus  -47.53779984 30.73810005 60.74340057
lradius  0.01802326925 -6.507048965e-006 28.99248123
lwrist  3.192251654e-007 -3.790274832e-007 -30.17009926
lhand  -4.451684775e-031 -37.51340103 -10.60050011
lfingers  90 7.125020027 -90
lthumb  95.08689162 -25.41544345 101.7177162
rclavicle  0 -4.497500157e-015 -2.743230041e-014
rhumerus  19.59480286 -36.93809891 -39.61439896
rradius  -5.16745672e-007 2.214343908e-008 39.19100189
rwrist  0.0003490542294 -0.002273720223 -159.0279999
rhand  -1.772043597e-031 4.901810169 -7.392749786
rfingers  -90 -7.125020027 -90
rthumb  -84.88350957 -8.68535656 -59.33489889
rfemur  -11.37096977 14.93648243 12.14923191
rtibia  -0.5875127316 -1.565180421 18.46917534
rfoot  1.419029236 -21.80314255 -35.27531052
rtoes  3.90334409 19.63071538 -101.4804558
lfemur  -1.980298519 -17.04354095 -23.97589493
ltibia  8.526460648 -0.9962416887 3.935679436
lfoot  0.1847541332 -18.80604935 36.27095413
ltoes  -8.658701613 -18.09808922 -116.1149662
170
root  34.78645265 36.56807847 -14.14369448 9.941483498 -3.913532734 4.153349876
lowerback  -7.938532829 0.07511472702 -1.345423818
upperback  -4.039960861 0.7897444963 -4.751790047
thorax  0.3203180134 0.6044478416 -4.097630024
lowerneck  -6.888070107 -14.85309982 -9.593709946
upperneck  13.98760033 -20.84329987 13.43700027
head  7.890590191 -9.316454887 3.677170038
lclavicle  0 -4.497500157e-015 -2.743230041e-014
lhumerus  -47.54130173 30.74389839 60.75899887
lradius  0.01892649569 -6.507048965e-006 28.99494171
lwrist  3.192251654e-007 -3.790274832e-007 -30.14780045
lhand  -0 -37.52289963 -10.50030041
lfingers  90 7.125020027 -90
lthumb  95.06882756 -25.31700795 101.718258
rclavicle  0 -4.497500157e-015 -2.743230041e-014
rhumerus  19.57519913 -36.91479874 -39.57830048
rradius  -5.16745672e-007 2.214343908e-008 39.19609833
rwrist  0.0003490542294 -0.002273720223 -158.9470062
rhand  -1.771741823e-031 4.786670208 -7.548250198
rfingers  -90 -7.125020027 -90
rthumb  -84.99049581 -8.543903164 -59.45906228
rfemur  -11.35394096 15.01041412 12.16122532
rtibia  -0.5879335999 -1.524972439 18.46936607
rfoot  1.416840792 -21.72356415 -35.33494949
rtoes  3.890389832 19.63318914 -101.4418988
lfemur  -1.963802934 -17.02531433 -23.9674511
ltibia  8.52546978 -0.9851426482 3.932470798
lfoot  0.1935824901 -18.83540344 36.29481125
ltoes  -8.696707471 -18.080331 -116.2373693
